<?xml version="1.0" standalone="no"?><!DOCTYPE svg PUBLIC "-//W3C//DTD SVG 1.1//EN" "http://www.w3.org/Graphics/SVG/1.1/DTD/svg11.dtd"><svg t="1596164127360" class="icon" viewBox="0 0 1024 1024" version="1.1" xmlns="http://www.w3.org/2000/svg" p-id="94776" xmlns:xlink="http://www.w3.org/1999/xlink" width="200" height="200"><defs><style type="text/css"></style></defs><path d="M83.017143 277.577143m73.142857 0l711.68 0q73.142857 0 73.142857 73.142857l0 486.765714q0 73.142857-73.142857 73.142857l-711.68 0q-73.142857 0-73.142857-73.142857l0-486.765714q0-73.142857 73.142857-73.142857Z" fill="#7382EF" p-id="94777"></path><path d="M202.605714 235.885714V152.868571a39.497143 39.497143 0 0 1 39.497143-39.131428h539.794286a39.497143 39.497143 0 0 1 39.497143 39.131428v83.017143" fill="#7382EF" p-id="94778"></path><path d="M443.611429 780.8h-204.8a53.394286 53.394286 0 0 1-53.394286-53.394286v-264.045714a53.394286 53.394286 0 0 1 53.394286-53.394286h204.8a53.394286 53.394286 0 0 1 53.394285 53.394286v264.045714a53.394286 53.394286 0 0 1-53.394285 53.394286z m-204.8-319.634286l-2.194286 266.24 206.994286 2.194286a2.194286 2.194286 0 0 0 2.194285-2.194286v-264.045714z" fill="#FFFFFF" p-id="94779"></path><path d="M804.571429 461.165714h-219.428572a25.6 25.6 0 1 1 0-51.2h219.428572a25.6 25.6 0 0 1 0 51.2z" fill="#FFFFFF" opacity=".5" p-id="94780"></path><path d="M804.571429 621.714286h-219.428572a25.6 25.6 0 1 1 0-51.2h219.428572a25.6 25.6 0 1 1 0 51.2z" fill="#FFFFFF" opacity=".7" p-id="94781"></path><path d="M804.571429 780.8h-219.428572A25.6 25.6 0 1 1 585.142857 731.428571h219.428572a25.6 25.6 0 0 1 0 51.2z" fill="#FFFFFF" p-id="94782"></path></svg>