<?xml version="1.0" standalone="no"?><!DOCTYPE svg PUBLIC "-//W3C//DTD SVG 1.1//EN" "http://www.w3.org/Graphics/SVG/1.1/DTD/svg11.dtd"><svg t="1596164536396" class="icon" viewBox="0 0 1024 1024" version="1.1" xmlns="http://www.w3.org/2000/svg" p-id="114683" xmlns:xlink="http://www.w3.org/1999/xlink" width="200" height="200"><defs><style type="text/css"></style></defs><path d="M882.555 913.756c19.435 0 37.929-9.062 48.548-25.334 52.244-80.015 82.657-175.882 82.657-278.927C1013.76 329.431 789.115 102.4 512 102.4S10.24 329.431 10.24 609.495c0 103.045 30.413 198.912 82.657 278.927 10.62 16.272 29.113 25.334 48.538 25.334h741.12z" fill="#36CFC9" p-id="114684"></path><path d="M506.716 315.914c23.347 0 42.26 19.118 42.26 42.701v227.891l-22.435 108.749a41.861 41.861 0 0 1-41.595-1.126 42.803 42.803 0 0 1-20.48-36.588V358.605c0-23.583 18.913-42.701 42.25-42.701zM368.64 696.648a133.448 132.045 90 1 0 264.09 0 133.448 132.045 90 1 0-264.09 0z" fill="#08979C" p-id="114685"></path><path d="M430.08 696.32a71.68 71.68 0 1 0 143.36 0 71.68 71.68 0 1 0-143.36 0zM548.966 103.752a503.316 503.316 0 0 0-84.5 0.89v83.16c0 23.593 18.913 42.7 42.25 42.7 23.347 0 42.26-19.107 42.26-42.7v-84.05zM169.984 238.469a504.75 504.75 0 0 1 67.144-53.268l31.928 55.88c11.674 20.428 4.741 46.54-15.462 58.337a42.015 42.015 0 0 1-57.723-15.637l-25.887-45.312zM32.307 460.32a506.91 506.91 0 0 1 31.96-79.975l65.3 38.114c20.213 11.786 27.136 37.908 15.462 58.327a42.015 42.015 0 0 1-57.713 15.636L32.307 460.32z m921.948-90.573a506.982 506.982 0 0 1 33.751 78.93L913.03 492.42a42.015 42.015 0 0 1-57.723-15.636c-11.673-20.419-4.74-46.541 15.463-58.327l83.486-48.712z m-178.954-192a503.91 503.91 0 0 1 68.332 51.2l-31.335 54.835a42.015 42.015 0 0 1-57.723 15.637c-20.203-11.797-27.136-37.909-15.462-58.338l36.188-63.334z" fill="#B5F5EC" p-id="114686"></path></svg>