<?xml version="1.0" standalone="no"?><!DOCTYPE svg PUBLIC "-//W3C//DTD SVG 1.1//EN" "http://www.w3.org/Graphics/SVG/1.1/DTD/svg11.dtd"><svg t="1596101245395" class="icon" viewBox="0 0 1024 1024" version="1.1" xmlns="http://www.w3.org/2000/svg" p-id="25059" xmlns:xlink="http://www.w3.org/1999/xlink" width="200" height="200"><defs><style type="text/css"></style></defs><path d="M64 160c0 70.72 157.6 128 352 128s352-57.28 352-128v239.808C708.896 443.904 574.176 480 416 480s-292.896-36.096-352-80.192V160z" fill="#00A1FF" p-id="25060"></path><path d="M64 437.312C137.696 482.176 267.776 512 416 512s278.304-29.824 352-74.688v218.496C708.896 699.904 574.176 736 416 736s-292.896-36.096-352-80.192v-218.496z" fill="#00A1FF" p-id="25061"></path><path d="M416 768c148.224 0 278.304-29.824 352-74.688V816c0 79.52-157.6 144-352 144S64 895.52 64 816v-122.688C137.696 738.176 267.776 768 416 768z" fill="#00A1FF" p-id="25062"></path><path d="M768 528c114.432 0 208 93.568 208 208s-93.568 208-208 208-208-93.568-208-208 93.568-208 208-208z" fill="#96D8FF" p-id="25063"></path><path d="M610.624 789.824c58.592 4.768 105.472-18.752 140.672-70.528l-52.8-52.8 184.8-26.4-26.4 184.8-52.8-52.8c-65.152 48.416-129.632 54.336-193.472 17.728z" fill="#FFFFFF" p-id="25064"></path><path d="M96 160a320 96 0 1 0 640 0 320 96 0 1 0-640 0Z" fill="#96D8FF" p-id="25065"></path></svg>