<?xml version="1.0" standalone="no"?><!DOCTYPE svg PUBLIC "-//W3C//DTD SVG 1.1//EN" "http://www.w3.org/Graphics/SVG/1.1/DTD/svg11.dtd"><svg t="1597663839694" class="icon" viewBox="0 0 1024 1024" version="1.1" xmlns="http://www.w3.org/2000/svg" p-id="4650" xmlns:xlink="http://www.w3.org/1999/xlink" width="400" height="400"><defs><style type="text/css"></style></defs><path d="M815.4 1006.5H227.7c-19.6 0-35.5-15.9-35.5-35.5s15.9-35.5 35.5-35.5h587.7c19.6 0 35.5 15.9 35.5 35.5s-15.9 35.5-35.5 35.5z" fill="#4E8CEE" p-id="4651"></path><path d="M686 331.5L492.8 56.4c-6.4-9.1-19.9-9.1-26.2 0L273.4 331.6c-4 5.8-11.4 8.2-18.1 6L34.9 266c-11.8-3.8-23.3 6.6-20.6 18.7l126.8 573.6c1.6 7.3 8.1 12.6 15.7 12.6h633.1c7.5 0 13.9-5.1 15.6-12.4l132.8-573.3c2.8-12.2-8.8-22.8-20.7-18.8l-213.4 71.1c-6.7 2.3-14.1-0.2-18.2-6zM567.8 748.3l-97.6-76.4c-5.8-4.5-13.9-4.5-19.7-0.1l-91.4 70.6c-12.5 9.6-29.9-2.6-25.1-17.6l38.9-121c2.1-6.4-0.1-13.4-5.4-17.5l-103.1-80.7c-12-9.4-5.4-28.7 9.9-28.7h110.3c6.7 0 12.7-4.2 15-10.5l45.7-123.3c5.2-14 24.9-14 30.1 0l45.7 123.3c2.3 6.3 8.3 10.5 15 10.5h113.7c14.9 0 21.7 18.5 10.5 28.2l-101.4 87.6c-4.9 4.2-6.8 10.9-4.8 17l38.9 121c4.7 15.1-12.8 27.3-25.2 17.6z" fill="#BAD4FF" p-id="4652"></path><path d="M838 895.9H204.9c-19.2 0-36-13.6-40.1-32.2L38 290.1c-3.2-14.3 1.6-29.3 12.4-39.1 10.9-9.9 26.3-13.3 40.3-8.7l214.2 69.6L494.2 42.1c7.6-10.9 20.1-17.4 33.4-17.5h0.2c13.4 0 25.9 6.5 33.6 17.4l189.4 269.7 207.1-69c14-4.7 29.5-1.5 40.5 8.5s15.8 25.1 12.4 39.6L878 864.1c-4.4 18.8-20.8 31.8-40 31.8z m-624.4-43z m-1.5-7h618.8l127.6-550.7-198.2 66c-17.2 5.8-36.3-0.6-46.6-15.4L527.8 81.2 342 345.9c-10.2 14.7-29.3 21-46.4 15.4L90.2 294.6l121.9 551.3z m99-532.1z m662.6-23.7c-0.1 0 0 0 0 0z m-348 486.6c-8.9 0-17.8-2.9-25.2-8.7l-92.1-72.1-85.9 66.3c-14.4 11-33.9 11.5-48.7 1.1-14.8-10.4-21-28.9-15.5-46.1l37-115-98.2-76.9c-14-11-19.3-28.9-13.5-45.7 5.8-16.8 21-27.7 38.8-27.7h104L470 334.4c6.1-16.3 21.2-26.8 38.5-26.8s32.4 10.5 38.5 26.8l43.6 117.5H698c17.3 0 32.4 10.5 38.4 26.7 6.1 16.2 1.5 34.1-11.6 45.4l-96.9 83.7L665 723.3c5.4 17.3-1 35.9-15.9 46.1-7.1 4.9-15.3 7.3-23.4 7.3zM508.4 643.5c8.9 0 17.8 2.9 25.2 8.6l0.1 0.1 74.7 58.5-30-93.3c-5.1-15.7-0.3-32.9 12.3-43.7l83.1-71.8h-89.7c-17.1 0-32.6-10.8-38.5-26.9l-37.3-100.6L471.2 475c-5.9 16.1-21.3 26.9-38.5 26.9h-84.4l82.6 64.7c13.6 10.6 19.1 28.6 13.8 44.9l-30 93.5 68.8-53.1c7.3-5.6 16.1-8.4 24.9-8.4z m115-31.9z m-30.7-153.8z" fill="#4E8CEE" p-id="4653"></path></svg>