<?xml version="1.0" standalone="no"?><!DOCTYPE svg PUBLIC "-//W3C//DTD SVG 1.1//EN" "http://www.w3.org/Graphics/SVG/1.1/DTD/svg11.dtd"><svg t="1597749767261" class="icon" viewBox="0 0 1024 1024" version="1.1" xmlns="http://www.w3.org/2000/svg" p-id="11740" xmlns:xlink="http://www.w3.org/1999/xlink" width="400" height="400"><defs><style type="text/css"></style></defs><path d="M615.424 1024H408.576C182.784 1024 0 841.216 0 615.424V408.576C0 182.784 182.784 0 408.576 0h206.336C841.216 0 1024 182.784 1024 408.576v206.336c0 226.304-182.784 409.088-408.576 409.088z" fill="#4087FD" p-id="11741"></path><path d="M711.68 362.496l-113.664-120.32v117.248c0 1.536 1.024 3.072 2.56 3.072H711.68z m-154.624-125.44H333.824c-18.944 0-34.304 16.896-34.304 38.4v474.112c0 10.24 3.584 19.968 10.24 27.136s15.36 11.264 24.064 11.264h355.84c9.216 0 17.92-4.096 24.064-11.264 6.656-7.168 10.24-16.896 10.24-27.136V408.576h-123.392c-24.064 0-43.52-22.016-43.52-48.64v-122.88z m208.384 512c0 46.592-33.792 83.968-75.264 83.968H333.824c-41.472 0-75.264-37.888-75.264-83.968V274.944c0-46.592 33.792-83.968 75.264-83.968h261.632c8.704 0 17.408 3.584 23.552 10.24l135.168 143.36c6.656 7.168 10.752 17.408 10.752 27.648v376.832z m-411.136-137.728h287.744c11.264 0 20.48 10.24 20.48 23.04s-9.216 23.04-20.48 23.04H354.304c-11.264 0-20.48-10.24-20.48-23.04s9.216-23.04 20.48-23.04z m0-122.368h287.744c11.264 0 20.48 10.24 20.48 23.04s-9.216 23.04-20.48 23.04H354.304c-11.264 0-20.48-10.24-20.48-23.04s9.216-23.04 20.48-23.04z m0 0" fill="#FFFFFF" p-id="11742"></path></svg>