<?xml version="1.0" standalone="no"?><!DOCTYPE svg PUBLIC "-//W3C//DTD SVG 1.1//EN" "http://www.w3.org/Graphics/SVG/1.1/DTD/svg11.dtd"><svg t="1596100972895" class="icon" viewBox="0 0 1024 1024" version="1.1" xmlns="http://www.w3.org/2000/svg" p-id="15423" xmlns:xlink="http://www.w3.org/1999/xlink" width="200" height="200"><defs><style type="text/css"></style></defs><path d="M992.770801 623.53873c-58.461679-55.384749-56.923214-149.231128 4.615395-203.077412 23.076979-20.000048 32.30777-53.846283 23.076979-83.077122-4.615396-13.846187-9.230791-27.692374-15.384652-40.000097-12.307722-29.230839-41.538561-46.153957-72.307867-46.153957-81.538658 3.07693-146.154197-66.154005-140.000336-146.154197 1.538465-30.769305-15.384652-61.538609-43.077027-75.384797-12.307722-6.153861-26.153909-12.307722-40.000096-16.923117C677.385427 0.460309 645.077657 8.152635 623.539144 31.229614c-55.384749 58.461679-149.231128 56.923214-203.077411-4.615396C400.461685 3.537239 366.615449-5.693552 337.38461 3.537239c-13.846187 4.615396-27.692374 9.230791-40.000096 15.384653-29.230839 12.307722-46.153957 41.538561-46.153957 72.307866 3.07693 81.538658-66.154005 146.154197-146.154198 140.000336-30.769305-1.538465-61.538609 15.384652-75.384796 43.077027-6.153861 12.307722-12.307722 26.153909-16.923118 40.000096C0.460723 346.614987 8.153049 378.922757 31.230028 400.46127c58.461679 55.384749 56.923214 149.231128-4.615396 203.077412C3.537653 623.53873-5.693138 657.384965 3.537653 686.615804c4.615396 13.846187 9.230791 27.692374 15.384653 40.000097 12.307722 29.230839 41.538561 46.153957 72.307866 46.153957 81.538658-3.07693 146.154197 66.154005 140.000337 146.154197-1.538465 30.769305 15.384652 61.538609 43.077026 75.384797 12.307722 6.153861 26.153909 12.307722 40.000096 16.923117 29.230839 10.769257 63.077075 3.07693 84.615588-18.461583 55.384749-58.461679 149.231128-56.923214 203.077412 4.615396 20.000048 23.076979 53.846283 32.30777 83.077122 23.076979 13.846187-4.615396 27.692374-9.230791 40.000096-15.384653 29.230839-12.307722 46.153957-41.538561 46.153958-72.307866-3.07693-81.538658 66.154005-146.154197 146.154197-140.000336 30.769305 1.538465 61.538609-15.384652 75.384797-43.077027 6.153861-12.307722 12.307722-26.153909 16.923117-40.000096 13.846187-32.30777 6.153861-64.61554-16.923117-86.154053z m-481.539619 1.538465c-63.077075 0-112.307962-50.769353-112.307963-112.307962 0-63.077075 50.769353-112.307962 112.307963-112.307963 63.077075 0 112.307962 50.769353 112.307962 112.307963 1.538465 61.538609-49.230888 112.307962-112.307962 112.307962z" fill="#F39800" p-id="15424"></path></svg>