<?xml version="1.0" standalone="no"?><!DOCTYPE svg PUBLIC "-//W3C//DTD SVG 1.1//EN" "http://www.w3.org/Graphics/SVG/1.1/DTD/svg11.dtd"><svg t="1599741233304" class="icon" viewBox="0 0 1024 1024" version="1.1" xmlns="http://www.w3.org/2000/svg" p-id="4807" xmlns:xlink="http://www.w3.org/1999/xlink" width="200" height="200"><defs><style type="text/css"></style></defs><path d="M640.001538 618.232109a63.99154 63.99154 0 0 1-63.991539 63.991539h-127.983079a63.99154 63.99154 0 0 1-63.99154-63.991539v-95.98731H0.086142v437.739049a63.99154 63.99154 0 0 0 63.99154 63.99154h895.906166a63.99154 63.99154 0 0 0 63.99154-63.99154V522.232493h-383.949238z" fill="#4688F3" p-id="4808"></path><path d="M479.998077 490.224417h63.99154a28.30395 28.30395 0 0 1 31.99577 24.02144 28.008605 28.008605 0 0 1 0 7.986636v63.99154a28.30395 28.30395 0 0 1-31.99577 31.99577h-63.99154a28.30395 28.30395 0 0 1-31.99577-31.99577v-63.99154a28.30395 28.30395 0 0 1 24.009134-31.995769 28.008605 28.008605 0 0 1 7.986636-0.012307z" fill="#4688F3" p-id="4809"></path><path d="M959.983848 202.225571h-143.980964V143.980964a144.313228 144.313228 0 0 0-143.980964-143.980964h-319.957698a144.313228 144.313228 0 0 0-143.980964 143.980964v58.244607h-143.980964a63.99154 63.99154 0 0 0-63.991539 63.99154v191.974618h392.846522a63.99154 63.99154 0 0 1 55.04503-31.995769h127.98308a63.99154 63.99154 0 0 1 55.04503 31.995769h392.957277v-191.974618a63.99154 63.99154 0 0 0-64.003846-63.99154z m-655.91328-58.244607a47.993655 47.993655 0 0 1 47.993654-47.993655h319.957698a47.993655 47.993655 0 0 1 47.993655 47.993655v58.232301h-415.945007z" fill="#4688F3" p-id="4810"></path></svg>