<?xml version="1.0" standalone="no"?><!DOCTYPE svg PUBLIC "-//W3C//DTD SVG 1.1//EN" "http://www.w3.org/Graphics/SVG/1.1/DTD/svg11.dtd"><svg t="1599740244465" class="icon" viewBox="0 0 1024 1024" version="1.1" xmlns="http://www.w3.org/2000/svg" p-id="1309" xmlns:xlink="http://www.w3.org/1999/xlink" width="200" height="200"><defs><style type="text/css"></style></defs><path d="M370.2 612.7c-22.4 0-41 18.7-41 41 0 22.4 18.7 41 41 41 22.4 0 41-18.7 41-41s-18.6-41-41-41z" fill="#0E85F8" p-id="1310"></path><path d="M512 64.2C264.7 64.2 64.2 264.7 64.2 512S264.7 959.8 512 959.8 959.8 759.3 959.8 512 759.3 64.2 512 64.2z m186.6 492.6l-7.5 7.5c-41 41-104.5 44.8-153 11.2-26.1 26.1-126.9 141.7-126.9 141.7-18.7 18.7-67.2 37.3-104.5 0s-18.7-85.8 0-104.5l141.8-126.9c-29.9-44.8-26.1-111.9 14.9-153l7.5-7.5C508.2 288 582.8 288 620.2 288c11.2 0 3.7 7.5 3.7 7.5l-70.9 71c-7.5 7.5-7.5 26.1-7.5 26.1s7.5 63.4 14.9 70.9c7.5 7.5 67.2 14.9 67.2 14.9s22.4 0 29.9-7.5l70.9-70.9s7.5-7.5 7.5 7.5c0 37.3 0 112-37.3 149.3z" fill="#0E85F8" p-id="1311"></path></svg>